<?xml version="1.0" encoding="utf-8"?>
<!-- Generator: Adobe Illustrator 23.0.1, SVG Export Plug-In . SVG Version: 6.00 Build 0)  -->
<svg version="1.1" id="Layer_1" xmlns="http://www.w3.org/2000/svg" xmlns:xlink="http://www.w3.org/1999/xlink" x="0px" y="0px"
	 viewBox="0 0 595.28 624.27" style="enable-background:new 0 0 595.28 624.27;" xml:space="preserve">
<style type="text/css">
	.st0{fill:#026A4F;}
	.st1{fill:#FFFFFF;}
</style>
<ellipse class="st0" cx="297.64" cy="251.34" rx="237.85" ry="167.91"/>
<polygon class="st0" points="297.64,521.63 227.15,407.87 297.64,337.38 368.13,407.87 "/>
<path class="st1" d="M297.9,134.9c12.44,0,30.38,2.2,30.74,16.1c0,4.39-0.73,10.98-1.46,16.1c-3.66,23.42-14.27,80.89-20.5,127
	h-17.57c-5.12-42.46-15.74-100.65-20.13-125.9c-1.1-4.39-2.56-12.81-2.56-17.2C266.43,138.19,284.73,134.9,297.9,134.9z"/>
<path class="st1" d="M298.27,382.31c-17.2,0-29.65-12.44-29.65-30.74c0-17.93,12.44-30.38,29.65-30.38
	c17.57,0,30.01,12.44,30.01,30.38C328.28,369.87,315.84,382.31,298.27,382.31z"/>
</svg>
