<?xml version="1.0" encoding="utf-8"?>
<!-- Generator: Adobe Illustrator 23.0.1, SVG Export Plug-In . SVG Version: 6.00 Build 0)  -->
<svg version="1.1" id="Layer_1" xmlns="http://www.w3.org/2000/svg" xmlns:xlink="http://www.w3.org/1999/xlink" x="0px" y="0px"
	 viewBox="0 0 806.12 841.89" style="enable-background:new 0 0 806.12 841.89;" xml:space="preserve">
<style type="text/css">
	.st0{fill:#026A4F;}
	.st1{fill:#FFFFFF;}
	.st2{fill:#026B50;}
</style>
<ellipse class="st0" cx="399.17" cy="209.34" rx="237.85" ry="167.91"/>
<polygon class="st0" points="399.17,479.63 328.68,365.87 399.17,295.38 469.66,365.87 "/>
<path class="st1" d="M399.43,92.9c12.44,0,30.38,2.2,30.74,16.1c0,4.39-0.73,10.98-1.46,16.1c-3.66,23.42-14.27,80.89-20.5,127
	h-17.57c-5.12-42.46-15.74-100.65-20.13-125.9c-1.1-4.39-2.56-12.81-2.56-17.2C367.96,96.19,386.26,92.9,399.43,92.9z"/>
<path class="st1" d="M399.8,340.31c-17.2,0-29.65-12.44-29.65-30.74c0-17.93,12.44-30.38,29.65-30.38
	c17.57,0,30.01,12.44,30.01,30.38C429.81,327.87,417.37,340.31,399.8,340.31z"/>
<path class="st2" d="M304.32,516.6c-6.25,0-10.73,0.63-13.44,1.88c-2.71,1.26-4.38,3.11-5.03,5.56c-0.65,2.45-0.97,6.45-0.97,11.99
	v103.93h-8.89l-85.75-101.9v72.22c0,5.48,0.34,9.46,1.02,11.94c0.68,2.48,2.4,4.38,5.17,5.7c2.77,1.32,7.25,1.98,13.44,1.98v8.89
	h-48.73v-8.89c5.8,0,10.01-0.66,12.62-1.98c2.61-1.32,4.22-3.22,4.83-5.7c0.61-2.48,0.92-6.46,0.92-11.94v-66.9
	c0-5.41-0.15-9.47-0.44-12.18s-0.98-5.08-2.08-7.11c-1.1-2.03-2.89-3.67-5.37-4.93c-2.48-1.26-5.91-2.11-10.3-2.56v-8.89h38.19
	l74.64,88.17v-59.84c0-4.9-0.34-8.65-1.02-11.26c-0.68-2.61-2.35-4.62-5.03-6.04c-2.68-1.42-6.91-2.13-12.71-2.13v-8.89h48.92V516.6
	z"/>
<path class="st2" d="M438.31,638.81h-61.78v-8.89c5.22,0,9.02-0.37,11.41-1.11c2.38-0.74,3.58-2.5,3.58-5.27
	c0-1.93-0.39-3.9-1.16-5.9l-6.19-15.47h-42.54l-3.19,8.51c-1.81,4.77-2.71,8.22-2.71,10.34c0,3.87,1.5,6.32,4.5,7.35
	c3,1.03,6.49,1.55,10.49,1.55v8.89h-45.15v-8.89c3.61,0,6.67-0.68,9.18-2.03s4.91-3.92,7.2-7.69c2.29-3.77,4.75-9.1,7.4-16l37.8-99
	h9.19l39.93,102.09c2.9,7.22,5.03,12.1,6.38,14.65c1.35,2.55,3.22,4.51,5.61,5.9c2.38,1.39,5.74,2.08,10.05,2.08V638.81z
	 M380.69,592.69l-18.08-45.73l-17.21,45.73H380.69z"/>
<path class="st2" d="M564.19,516.6c-3.09,0.07-5.79,0.48-8.07,1.26c-2.29,0.77-4.17,1.98-5.66,3.63c-1.48,1.64-2.97,3.88-4.45,6.72
	c-1.48,2.84-3.55,7.28-6.19,13.34l-42.73,99.68h-8.99l-44.67-104.61c-2.77-6.51-4.93-10.99-6.48-13.44
	c-1.55-2.45-3.61-4.16-6.19-5.12c-2.58-0.97-6.41-1.45-11.5-1.45v-8.89h66.71v8.89c-6.32,0.26-10.7,0.77-13.15,1.55
	c-2.45,0.77-3.67,2.71-3.67,5.8c0,2.9,0.77,5.99,2.32,9.28l30.16,70.09l27.84-65.45c2.38-5.67,3.58-9.57,3.58-11.7
	c0-4.19-1.45-6.8-4.35-7.83c-2.9-1.03-7.25-1.61-13.05-1.74v-8.89h48.53V516.6z"/>
<path class="st2" d="M637.18,638.81h-66.52v-8.89c5.54,0,9.73-0.53,12.57-1.6c2.83-1.06,4.69-2.66,5.56-4.79
	c0.87-2.13,1.3-5.16,1.3-9.09v-82.37c0-5.67-1.18-9.67-3.53-11.99c-2.35-2.32-7.65-3.48-15.9-3.48v-8.89h66.52v8.89
	c-5.54,0-9.73,0.55-12.57,1.64c-2.84,1.1-4.69,2.69-5.56,4.79c-0.87,2.09-1.3,5.11-1.3,9.04v82.37c0,3.74,0.42,6.67,1.26,8.8
	c0.84,2.13,2.62,3.77,5.37,4.93c2.74,1.16,7.01,1.74,12.81,1.74V638.81z"/>
</svg>
